<?xml version="1.0" standalone="no"?>
<!DOCTYPE svg PUBLIC "-//W3C//DTD SVG 20010904//EN"
 "http://www.w3.org/TR/2001/REC-SVG-20010904/DTD/svg10.dtd">
<svg version="1.0" xmlns="http://www.w3.org/2000/svg"
 width="3600.000000pt" height="3600.000000pt" viewBox="0 0 3600.000000 3600.000000"
 preserveAspectRatio="xMidYMid meet">
<metadata>
Created by potrace 1.11, written by Peter Selinger 2001-2013
</metadata>
<g transform="translate(0.000000,3600.000000) scale(0.100000,-0.100000)"
fill="#000000" stroke="none">
<path d="M17380 35989 c-3501 -118 -6859 -1244 -9735 -3264 -347 -243 -847
-628 -1194 -919 -662 -554 -1330 -1204 -1916 -1862 -1185 -1332 -2189 -2874
-2926 -4497 -1442 -3172 -1929 -6703 -1403 -10172 511 -3378 1990 -6552 4254
-9134 356 -406 882 -950 1251 -1292 1564 -1456 3323 -2600 5261 -3425 4282
-1821 9200 -1898 13533 -212 2143 834 4069 2044 5773 3626 193 179 690 676
873 873 1346 1445 2438 3076 3240 4842 1442 3172 1929 6703 1403 10172 -511
3378 -1990 6553 -4254 9134 -482 550 -1042 1113 -1596 1606 -969 862 -2073
1644 -3220 2283 -2837 1577 -6067 2352 -9344 2241z m-2445 -7714 c435 -19 925
-183 1317 -441 576 -380 999 -979 1162 -1644 46 -189 64 -315 77 -535 7 -123
9 -2498 7 -7490 -3 -6853 -5 -7319 -21 -7455 -66 -552 -219 -1044 -462 -1482
-78 -140 -266 -422 -360 -538 -482 -601 -1101 -1035 -1817 -1274 -425 -142
-853 -204 -1323 -193 -405 10 -756 70 -1125 194 -1053 351 -1918 1154 -2349
2179 -54 129 -141 378 -160 461 l-13 51 -66 12 c-989 179 -1876 643 -2587
1355 -788 788 -1263 1776 -1401 2915 -22 182 -30 678 -15 880 45 589 178 1122
413 1649 453 1022 1292 1892 2296 2383 l143 70 -17 26 c-762 1155 -787 2637
-66 3812 251 410 625 800 1022 1069 475 322 986 513 1565 588 168 21 651 24
809 5 54 -7 101 -10 104 -8 3 3 -5 52 -16 108 -84 410 -74 834 28 1238 92 366
279 740 517 1040 95 118 320 344 433 434 448 355 1003 567 1560 595 80 4 163
6 185 5 22 -2 94 -6 160 -9z m6580 -5 c227 -26 458 -78 655 -150 256 -92 579
-275 795 -450 117 -94 349 -330 436 -445 324 -425 505 -870 565 -1390 12 -107
15 -195 11 -375 -5 -232 -16 -335 -56 -517 l-18 -85 51 5 c971 113 1907 -150
2654 -746 155 -123 427 -394 546 -542 421 -529 668 -1118 758 -1810 21 -158
18 -697 -5 -858 -72 -521 -235 -979 -500 -1409 -35 -57 -66 -109 -71 -115 -5
-9 45 -39 163 -98 463 -231 843 -502 1215 -865 263 -257 445 -474 635 -755
417 -618 674 -1272 785 -1995 44 -289 51 -395 50 -765 0 -297 -4 -378 -23
-534 -112 -931 -460 -1770 -1031 -2487 -718 -901 -1711 -1510 -2840 -1740 -96
-20 -175 -37 -176 -37 -1 -1 -18 -58 -38 -127 -299 -1003 -1030 -1874 -1967
-2345 -524 -263 -1056 -396 -1649 -412 -1523 -40 -2918 812 -3589 2192 -186
381 -306 800 -363 1265 -11 85 -13 1533 -13 7620 0 7157 1 7520 18 7625 96
596 341 1094 743 1514 443 462 1018 748 1664 826 129 16 473 18 595 5z"/>
</g>
</svg>
